<?xml version="1.0" standalone="no"?>
<!DOCTYPE svg PUBLIC "-//W3C//DTD SVG 20010904//EN"
 "http://www.w3.org/TR/2001/REC-SVG-20010904/DTD/svg10.dtd">
<svg version="1.0" xmlns="http://www.w3.org/2000/svg"
 width="256.000000pt" height="256.000000pt" viewBox="0 0 256.000000 256.000000"
 preserveAspectRatio="xMidYMid meet">
<metadata>
Created by potrace 1.16, written by Peter Selinger 2001-2019
</metadata>
<g transform="translate(0.000000,256.000000) scale(0.100000,-0.100000)"
fill="#000000" stroke="none">
<path d="M0 2415 c0 -130 2 -146 18 -151 9 -3 25 -10 34 -15 24 -12 25 -12 32
14 6 22 7 22 21 3 19 -25 19 -41 0 -60 -8 -8 -15 -19 -15 -25 0 -6 -4 -11 -10
-11 -5 0 -10 -8 -10 -17 0 -14 -3 -14 -12 -5 -9 9 -10 15 -2 20 7 4 12 19 12
34 0 23 -2 25 -15 12 -8 -7 -23 -14 -34 -14 -18 0 -19 -8 -19 -146 0 -140 1
-145 20 -139 30 10 56 -10 102 -78 23 -34 33 -55 23 -47 -17 14 -18 13 -10 -5
4 -11 13 -34 19 -52 9 -28 20 -36 81 -58 38 -14 79 -29 89 -32 13 -4 -1 20
-42 72 -34 44 -59 82 -56 85 3 3 12 -4 21 -15 8 -11 19 -19 24 -17 5 1 9 -4 9
-11 0 -10 70 -110 96 -136 2 -2 -1 12 -6 30 l-10 34 44 -48 c46 -48 61 -56 69
-34 3 8 13 3 29 -14 15 -18 75 -47 183 -89 367 -143 433 -169 475 -183 25 -9
96 -34 158 -56 61 -22 112 -37 112 -34 0 3 7 0 16 -7 8 -8 36 -24 62 -36 26
-12 40 -23 31 -23 -16 -1 -303 96 -437 148 -42 16 -126 48 -187 71 -60 23
-114 45 -120 50 -5 4 -29 14 -51 23 l-42 16 -5 -27 c-3 -15 1 -40 10 -57 8
-16 19 -41 24 -55 7 -22 7 -23 -4 -6 -6 10 -22 34 -34 53 -24 36 -29 53 -14
53 5 0 8 11 7 24 -1 21 -13 28 -101 59 -227 79 -311 110 -335 122 -14 7 -37
15 -51 18 -26 7 -27 5 -31 -50 -4 -51 -2 -63 26 -108 30 -49 31 -53 30 -170 0
-105 -3 -126 -23 -163 -21 -42 -23 -43 -41 -27 -10 9 -22 31 -26 49 -4 17 -9
25 -11 19 -3 -7 -11 -13 -19 -13 -8 0 -14 -9 -14 -21 0 -35 -18 -56 -55 -63
l-35 -7 0 -214 c0 -161 3 -215 13 -218 9 -4 9 -6 0 -6 -8 -1 -13 -16 -13 -42
0 -29 3 -38 13 -33 9 6 9 4 -1 -7 -9 -10 -12 -83 -12 -296 l0 -283 1280 0
1280 0 0 140 c0 105 -3 140 -12 141 -7 1 -26 3 -43 4 -75 5 -71 2 -45 30 18
19 26 22 37 14 7 -6 10 -15 7 -20 -9 -15 14 -10 30 7 12 11 13 20 6 32 -18 31
-37 52 -47 52 -6 0 -18 16 -27 35 -23 47 -38 45 -65 -7 -36 -69 -37 25 -1 99
25 53 25 125 -1 158 -17 21 -24 23 -35 14 -8 -7 -12 -19 -9 -28 2 -9 0 -23 -5
-31 -7 -12 -12 -12 -22 -2 -6 6 -23 12 -36 12 -25 0 -76 33 -66 43 3 3 -2 19
-10 35 -10 20 -26 33 -47 37 -21 5 -27 10 -19 15 7 4 26 3 42 -2 16 -6 32 -8
35 -4 10 10 -29 47 -46 44 -9 -1 -22 1 -30 6 -7 5 -41 11 -74 13 -75 5 -103
18 -86 39 6 8 12 24 13 37 1 17 15 28 73 51 55 23 72 34 76 53 3 16 0 23 -12
23 -11 0 -9 5 8 17 34 23 118 23 148 0 12 -10 23 -23 23 -29 0 -7 -11 -1 -26
13 -21 20 -24 21 -18 4 7 -18 6 -18 -28 2 -24 14 -40 18 -51 11 -27 -14 -20
-25 13 -20 24 3 39 -4 84 -45 49 -43 126 -133 164 -189 7 -10 3 0 -8 24 -13
26 -18 52 -15 65 5 17 4 19 -4 7 -8 -12 -11 -8 -11 18 0 17 -4 32 -8 32 -5 0
-7 15 -5 33 3 20 1 27 -4 20 -6 -8 -8 8 -7 40 1 28 -9 105 -22 169 -30 150
-34 196 -17 228 17 32 16 41 -1 34 -19 -7 -23 2 -27 56 -4 45 -4 45 26 42 43
-5 52 -18 30 -42 -22 -25 -13 -39 11 -15 12 12 19 13 24 5 17 -28 21 25 5 63
-5 13 -14 17 -31 13 -12 -3 -25 -2 -28 3 -3 4 -17 6 -31 3 -23 -4 -25 -1 -26
29 -2 72 -7 157 -15 224 -11 103 -10 128 3 132 7 3 13 -3 13 -12 0 -9 12 -27
27 -41 22 -20 27 -33 24 -60 -3 -44 14 -70 35 -49 8 7 14 18 14 24 0 19 18 12
25 -9 3 -11 10 -20 15 -20 4 0 6 -8 3 -19 -3 -10 0 -21 5 -25 5 -3 12 9 16 27
4 19 2 33 -4 35 -15 5 -12 19 5 19 8 0 15 -4 15 -9 0 -4 6 -8 14 -8 16 0 28
-46 28 -107 1 -26 6 -44 14 -47 11 -4 14 16 14 111 0 99 -2 114 -14 104 -11
-10 -17 -8 -25 6 -6 10 -11 13 -11 6 0 -6 -7 -19 -16 -28 -12 -12 -19 -13 -30
-4 -17 14 -19 52 -1 46 6 -2 20 5 30 17 15 17 21 18 38 8 33 -21 33 -27 19
343 -1 11 2 75 6 143 l7 123 -96 -2 c-80 -1 -97 -4 -100 -18 -4 -14 -5 -14 -6
2 0 9 -8 17 -17 17 -11 0 -14 -6 -9 -20 4 -11 2 -20 -4 -20 -6 0 -11 -13 -11
-30 0 -16 -4 -30 -9 -30 -13 0 -24 55 -16 80 6 20 3 20 -210 20 l-216 0 36
-44 c20 -25 47 -52 61 -60 26 -18 33 -46 11 -46 -8 0 -18 8 -23 19 -5 10 -33
44 -61 76 -39 42 -59 56 -75 53 -21 -3 -18 -8 35 -65 31 -35 57 -65 57 -68 0
-14 -44 20 -97 75 -54 57 -60 60 -105 60 -43 0 -47 -2 -50 -27 l-4 -28 -14 28
c-12 25 -18 27 -71 27 -52 0 -57 -2 -52 -20 7 -25 23 -36 23 -16 0 34 17 13
32 -38 13 -48 13 -53 -1 -52 -9 1 -20 7 -24 14 -4 6 -16 12 -26 12 -12 0 -21
10 -25 25 -4 14 -10 23 -15 20 -5 -3 -23 9 -41 25 l-32 30 -424 0 c-265 -1
-424 -4 -424 -10 0 -6 7 -10 15 -10 24 0 17 -18 -14 -36 -25 -15 -29 -22 -24
-47 5 -25 3 -29 -10 -24 -12 5 -17 1 -17 -13 0 -11 -11 -27 -24 -35 -14 -9
-24 -25 -23 -36 2 -23 20 -25 37 -4 14 16 72 14 78 -3 2 -6 -3 -21 -11 -34 -8
-13 -20 -41 -27 -63 -7 -22 -23 -54 -36 -72 -33 -43 -48 -123 -27 -138 12 -9
13 -16 5 -31 -6 -11 -7 -26 -3 -33 10 -15 37 24 43 60 2 16 10 25 26 27 12 2
22 2 22 0 0 -2 -14 -41 -30 -86 -37 -102 -42 -191 -10 -199 12 -3 20 -14 20
-25 0 -26 -31 -78 -46 -78 -7 0 -15 -6 -17 -12 -4 -10 -8 -9 -16 2 -14 19 -14
57 -1 65 5 3 10 15 10 25 0 10 6 21 13 23 9 4 9 8 -2 15 -9 7 -20 7 -31 0 -10
-7 -32 -8 -56 -3 -21 4 -33 10 -27 12 7 3 13 14 13 24 0 14 -4 18 -12 13 -8
-5 -7 0 2 11 11 14 12 19 3 22 -7 3 -13 9 -13 15 0 5 6 8 13 6 6 -3 15 -22 18
-44 l6 -39 2 43 c0 25 6 42 14 43 6 1 22 2 34 3 28 1 36 10 29 33 -4 13 -15
19 -34 18 -24 0 -27 4 -30 34 -2 19 1 44 6 55 6 12 13 39 16 61 6 44 47 150
65 168 16 16 14 29 -4 20 -14 -8 -60 -89 -110 -193 -24 -51 -55 -77 -97 -86
-5 -1 -10 -3 -13 -4 -3 -1 -9 -3 -15 -4 -5 0 -16 -10 -24 -21 -14 -19 -15 -19
-21 -2 -4 9 -4 32 -1 51 7 36 -1 69 -14 61 -4 -3 -11 3 -14 12 -4 9 -2 19 4
23 8 5 8 20 0 54 -16 73 -2 256 20 256 4 0 5 11 3 23 -4 19 4 31 36 56 23 18
41 37 41 42 0 5 -27 9 -60 9 -49 0 -60 -3 -60 -17 0 -9 7 -24 15 -33 9 -10 13
-25 9 -34 -12 -30 -29 -10 -32 37 l-3 47 -85 0 -84 0 0 -145z m1498 12 c2 -15
7 -25 12 -22 5 3 14 -4 20 -15 6 -11 16 -20 22 -20 9 0 9 3 0 12 -7 7 -12 16
-12 22 0 5 9 0 20 -12 21 -22 27 -37 10 -27 -5 3 -10 2 -10 -4 0 -15 23 -26
28 -13 2 6 10 8 18 5 9 -3 11 -9 6 -12 -9 -6 -6 -32 13 -126 6 -29 6 -29 -9
-11 -9 11 -16 16 -16 11 0 -15 -70 58 -71 74 -1 9 -5 5 -9 -9 -4 -14 -8 -19
-9 -12 -1 7 -5 11 -10 8 -9 -6 -61 38 -61 51 0 5 9 9 20 9 11 0 20 -5 20 -11
0 -14 20 17 20 32 0 7 -6 10 -14 7 -8 -3 -17 -1 -21 5 -4 8 -12 8 -25 1 -13
-7 -21 -7 -25 0 -10 16 5 31 26 25 19 -6 27 9 10 19 -5 3 -11 15 -14 26 -5 19
-1 21 26 18 27 -2 33 -8 35 -31z m111 -274 c11 -21 21 -31 22 -23 2 18 14 -35
34 -154 9 -49 15 -128 13 -175 -1 -56 3 -94 11 -110 11 -20 11 -26 -3 -39 -15
-15 -16 -14 -16 13 0 47 -11 74 -31 80 -17 6 -18 8 -3 30 9 13 13 28 10 34 -3
5 1 11 9 14 10 4 12 17 9 44 -11 82 -12 83 -49 83 -19 0 -35 5 -35 10 0 6 -5
10 -11 10 -6 0 -9 -7 -5 -15 3 -8 1 -15 -3 -15 -5 0 -12 8 -15 17 -8 21 -26 5
-29 -25 0 -11 -5 -18 -9 -16 -4 3 -8 -4 -8 -15 0 -12 5 -20 11 -18 6 1 13 -5
15 -13 16 -70 25 -93 47 -120 15 -17 24 -37 21 -45 -8 -21 -11 -19 -29 15 -16
30 -42 43 -31 15 3 -8 1 -15 -4 -15 -6 0 -10 5 -10 10 0 6 -4 10 -9 10 -6 0
-11 -17 -13 -37 -3 -41 -25 -56 -30 -21 -2 13 -9 22 -16 20 -7 -1 -12 9 -12
25 0 16 -3 39 -6 53 -4 19 -3 21 4 11 8 -11 9 -4 5 25 -4 31 -1 43 16 58 22
20 28 46 11 46 -5 0 -10 6 -10 14 0 8 -7 16 -14 19 -10 4 -13 1 -10 -7 7 -17
-38 -29 -48 -13 -6 9 -8 9 -8 0 0 -7 -10 -13 -23 -13 -12 0 -32 -7 -44 -15
-21 -14 -21 -13 -28 35 -6 40 -3 58 15 95 12 25 26 45 31 45 6 0 7 -6 4 -12
-4 -7 4 -1 17 14 31 37 85 37 95 0 5 -23 7 -23 16 -6 15 29 16 29 32 8 15 -19
15 -19 8 0 -4 13 -3 17 5 12 8 -5 12 1 12 16 1 21 2 22 14 6 7 -10 19 -18 25
-18 8 0 6 7 -5 18 -16 16 -16 17 -1 20 10 2 17 9 16 15 -6 49 14 48 40 0z
m324 14 c-4 -6 4 -7 20 -3 14 3 28 2 31 -3 10 -15 -13 -63 -27 -58 -7 3 -22
-2 -32 -10 -19 -13 -18 -14 10 -8 17 3 40 8 52 11 23 4 40 -10 23 -21 -15 -9
-12 -25 5 -25 24 0 17 -30 -7 -31 -23 -2 -23 -2 -1 -6 12 -2 27 -11 34 -19 10
-12 9 -16 -9 -21 -25 -6 -30 -33 -7 -33 11 0 15 -12 15 -50 0 -37 -4 -50 -15
-50 -14 0 -55 -26 -126 -81 -45 -35 -69 -43 -69 -23 0 8 -4 13 -8 10 -4 -2 -8
7 -7 22 0 24 4 27 39 30 30 3 50 13 82 44 l43 41 -20 38 c-12 24 -29 41 -44
45 -26 6 -35 24 -12 24 16 0 61 -47 72 -75 5 -13 9 -16 12 -7 8 21 -44 91 -73
98 -34 9 -94 -19 -94 -43 0 -15 -2 -16 -10 -3 -13 20 -13 10 0 -27 8 -22 7
-36 -4 -58 -9 -16 -13 -40 -10 -52 5 -17 2 -23 -11 -23 -13 0 -15 -6 -10 -29
5 -26 3 -30 -26 -40 -18 -6 -35 -11 -39 -11 -3 0 0 36 8 80 14 75 13 82 -3
100 -17 19 -17 22 -2 57 9 21 23 63 31 93 24 86 79 127 168 127 16 0 25 -4 21
-10z m-1613 -797 c9 -6 19 -5 28 2 11 9 12 7 7 -15 -6 -23 -3 -27 21 -33 28
-7 109 -57 119 -75 4 -5 14 -9 24 -9 27 0 50 -31 77 -106 37 -100 46 -151 38
-221 -7 -65 -25 -88 -24 -30 1 49 -11 100 -27 118 -8 9 -19 33 -24 54 -10 34
-11 36 -24 18 -13 -16 -14 -16 -15 -1 0 11 -5 15 -14 12 -7 -3 -16 3 -20 13
-16 41 -55 107 -56 93 0 -11 -4 -9 -12 5 -7 11 -18 26 -25 33 -7 7 -13 20 -13
28 0 8 -4 14 -9 14 -5 0 -7 -10 -3 -22 9 -37 -15 -11 -29 30 -6 20 -20 48 -30
61 -29 36 -23 53 11 31z m941 -307 c-4 -16 -7 -63 -6 -105 0 -50 -3 -75 -10
-71 -5 3 10 -12 35 -34 76 -64 174 -156 188 -175 15 -21 63 -47 77 -42 6 2 28
-33 50 -78 22 -44 45 -83 53 -85 25 -10 33 12 19 48 -8 19 -17 59 -21 89 l-6
55 21 -25 c11 -14 29 -44 40 -67 22 -47 59 -213 54 -240 -2 -10 -4 -26 -4 -37
-1 -17 -7 -18 -78 -12 -50 4 -82 12 -89 21 -6 8 -16 15 -23 15 -6 0 -11 5 -11
10 0 6 -5 10 -12 10 -9 0 -9 -3 0 -12 7 -7 12 -17 12 -22 0 -9 -15 3 -105 91
-18 17 -36 41 -40 52 -3 12 -13 21 -20 21 -8 0 -22 12 -30 28 -9 15 -14 19
-11 9 5 -14 -2 -12 -31 10 -35 26 -35 28 -14 31 14 2 40 -8 65 -25 56 -41 70
-48 62 -35 -3 5 0 12 6 15 10 3 10 7 -1 20 -12 15 -11 17 3 17 9 0 16 6 16 14
0 9 8 12 25 8 37 -7 31 5 -15 28 -22 11 -40 25 -40 30 0 6 -7 10 -15 10 -8 0
-15 4 -15 9 0 17 -34 22 -42 6 -6 -10 -17 -13 -33 -9 -20 5 -24 2 -27 -23 -3
-28 -19 -35 -27 -12 -2 6 1 9 6 6 5 -3 9 3 9 13 0 10 -5 16 -10 13 -5 -4 -7 1
-3 12 10 25 -10 44 -54 51 -46 8 -62 34 -21 34 48 0 57 13 43 60 -6 22 -16 38
-20 35 -5 -2 -14 2 -21 10 -11 13 -14 13 -25 -2 -10 -14 -16 -15 -28 -5 -21
17 -49 4 -42 -19 7 -21 -5 -25 -22 -8 -16 16 -32 2 -26 -24 4 -18 3 -19 -7 -7
-6 8 -22 37 -36 63 -14 27 -28 46 -31 43 -4 -4 -19 6 -34 20 -16 15 -39 27
-55 27 l-27 0 24 19 c53 42 111 49 195 23 45 -14 50 -13 62 3 32 43 108 121
119 122 8 0 9 -9 4 -27z m-482 -149 c26 -18 39 -21 58 -13 42 16 71 10 102
-21 34 -35 98 -157 111 -213 9 -40 -6 -62 -22 -33 -12 22 -28 20 -28 -3 0 -23
-29 -36 -36 -16 -5 11 -10 12 -25 2 -16 -10 -21 -9 -29 3 -7 11 -10 11 -10 2
0 -8 -9 -11 -27 -8 -16 2 -29 5 -30 6 -2 2 -6 3 -10 4 -5 1 -14 5 -22 10 -33
21 27 -58 64 -84 61 -43 122 -110 144 -160 11 -25 32 -60 47 -77 22 -28 24
-33 9 -33 -16 0 -33 14 -118 98 -82 81 -188 207 -212 252 -8 14 -31 39 -52 57
l-38 32 -3 136 -3 136 48 -27 c26 -15 63 -38 82 -50z m-403 -451 c58 -26 72
-28 219 -21 22 0 66 -5 97 -12 51 -13 59 -12 76 3 21 19 43 24 24 5 -7 -7 -12
-19 -12 -28 0 -27 -45 -46 -75 -32 -31 15 -115 15 -173 2 -29 -7 -56 -7 -81 0
-39 10 -141 84 -141 101 0 12 0 12 66 -18z m-211 -273 c9 8 15 8 20 0 4 -6 13
-7 23 -2 9 5 23 7 30 6 6 -1 17 -2 22 -3 6 0 11 -18 12 -38 l1 -38 4 38 c7 59
23 43 23 -23 0 -45 -4 -62 -15 -67 -22 -8 -33 6 -15 18 12 7 11 10 -7 15 -16
5 -23 15 -26 43 -4 35 -4 35 -7 -9 l-3 -45 -7 45 -7 45 -1 -40 -2 -41 -52 1
c-43 0 -53 3 -56 19 -2 10 1 23 7 29 14 14 14 30 1 22 -5 -3 -10 0 -10 8 0 21
12 28 27 16 10 -9 13 -6 14 12 l2 24 4 -23 c4 -18 8 -21 18 -12z"/>
<path d="M0 1496 l0 -225 38 6 c45 7 49 10 34 25 -7 7 -12 20 -12 29 0 9 -7
22 -15 29 -8 7 -15 22 -15 35 0 28 27 82 47 93 12 8 13 13 3 31 -9 18 -9 26 3
39 14 15 13 20 -4 41 -11 14 -19 34 -17 47 2 14 -7 32 -25 48 -15 14 -30 26
-33 26 -2 0 -4 -101 -4 -224z"/>
</g>
</svg>
